<svg width="24" height="24" viewBox="0 0 24 24" fill="none" xmlns="http://www.w3.org/2000/svg">
<path d="M17 17.7998L17 6.1998C17 5.0797 17 4.52043 16.782 4.0926C16.5903 3.71628 16.2845 3.40952 15.9082 3.21777C15.4808 3 14.921 3 13.8031 3L10.1969 3C9.079 3 8.52001 3 8.09261 3.21777C7.71628 3.40952 7.40952 3.71628 7.21777 4.0926C7 4.52001 7 5.07899 7 6.19691L7 17.8031C7 18.921 7 19.4808 7.21777 19.9082C7.40952 20.2845 7.71628 20.5903 8.09261 20.782C8.52043 21 9.0797 21 10.1998 21L13.7998 21C14.9199 21 15.4804 21 15.9082 20.782C16.2845 20.5903 16.5903 20.2845 16.782 19.9082C17 19.4804 17 18.9199 17 17.7998Z" stroke="white" stroke-linecap="round" stroke-linejoin="round"/>
</svg>
