<svg width="29" height="27" viewBox="0 0 29 27" fill="none" xmlns="http://www.w3.org/2000/svg">
<g clip-path="url(#clip0_735_18185)">
<path d="M6.24835 16.1188L5.26696 19.4774L1.68001 19.5469C0.60804 17.7242 0 15.6388 0 13.4227C0 11.2797 0.568502 9.25889 1.57621 7.47949H1.57698L4.77037 8.0162L6.16927 10.9261C5.87649 11.7086 5.71691 12.5486 5.71691 13.4227C5.71702 14.3713 5.90446 15.2802 6.24835 16.1188Z" fill="#FBBB00"/>
<path d="M27.9469 11.0088C28.1088 11.7905 28.1933 12.5979 28.1933 13.423C28.1933 14.3482 28.0871 15.2507 27.885 16.1212C27.1988 19.0836 25.4056 21.6703 22.9217 23.5009L22.9209 23.5002L18.8987 23.312L18.3294 20.0542C19.9776 19.1681 21.2657 17.7813 21.9442 16.1212H14.4062V11.0088H22.0542H27.9469Z" fill="#518EF8"/>
<path d="M22.9211 23.5002L22.9219 23.5009C20.5061 25.281 17.4372 26.3461 14.0966 26.3461C8.72814 26.3461 4.06069 23.5953 1.67969 19.5473L6.24802 16.1191C7.4385 19.0318 10.5034 21.1052 14.0966 21.1052C15.641 21.1052 17.0879 20.7224 18.3295 20.0543L22.9211 23.5002Z" fill="#28B446"/>
<path d="M23.0949 3.47513L18.5281 6.90258C17.2431 6.16626 15.7242 5.74091 14.0969 5.74091C10.4224 5.74091 7.30013 7.90942 6.16929 10.9265L1.57694 7.47988H1.57617C3.92232 3.33313 8.64864 0.5 14.0969 0.5C17.5173 0.5 20.6535 1.61694 23.0949 3.47513Z" fill="#F14336"/>
</g>
<defs>
<clipPath id="clip0_735_18185">
<rect y="0.5" width="28.1938" height="25.8462" rx="12.9231" fill="white"/>
</clipPath>
</defs>
</svg>
