<svg width="24" height="25" viewBox="0 0 24 25" fill="none" xmlns="http://www.w3.org/2000/svg">
<path d="M14.5 4.5H5.5V16C5.5 19.5899 8.41015 22.5 12 22.5C15.5899 22.5 18.5 19.5899 18.5 16V8.5C18.5 6.61438 18.5 5.67157 17.9142 5.08579C17.3284 4.5 16.3856 4.5 14.5 4.5Z" stroke="black" stroke-width="1.5" stroke-linejoin="round"/>
<path d="M10.998 18.5H12.998" stroke="black" stroke-width="1.5" stroke-linecap="round" stroke-linejoin="round"/>
<path d="M8.5 8.92857C8.5 8.52959 8.5 8.33009 8.55612 8.16972C8.65663 7.88247 8.88247 7.65663 9.16972 7.55612C9.33009 7.5 9.52959 7.5 9.92857 7.5H14.0714C14.4704 7.5 14.6699 7.5 14.8303 7.55612C15.1175 7.65663 15.3434 7.88247 15.4439 8.16972C15.5 8.33009 15.5 8.52959 15.5 8.92857V9.5C15.5 9.9645 15.5 10.1968 15.4692 10.3911C15.2998 11.4608 14.4608 12.2998 13.3911 12.4692C13.1968 12.5 12.4645 12.5 12 12.5C11.5355 12.5 10.8032 12.5 10.6089 12.4692C9.53918 12.2998 8.70021 11.4608 8.53078 10.3911C8.5 10.1968 8.5 9.9645 8.5 9.5V8.92857Z" stroke="black" stroke-width="1.5" stroke-linejoin="round"/>
<path d="M5.5 4.5V2.5" stroke="black" stroke-width="1.5" stroke-linecap="round" stroke-linejoin="round"/>
</svg>
